<?xml version="1.0" encoding="UTF-8"?>
<svg version="1.1" xmlns="http://www.w3.org/2000/svg" width="724" height="800">
<path d="M0 0 C5.15853259 0.00457005 10.31705221 -0.00248113 15.47558212 -0.00795984 C25.54648238 -0.01680362 35.61735265 -0.01495547 45.68825403 -0.00913456 C53.86849249 -0.00460321 62.04872259 -0.00401149 70.22896194 -0.00618219 C71.98042827 -0.00664189 71.98042827 -0.00664189 73.76727776 -0.00711088 C76.13964655 -0.00775036 78.51201534 -0.00839879 80.88438413 -0.00905606 C103.06674955 -0.01474332 125.24909837 -0.0082241 147.43146107 0.00254467 C166.4738151 0.01150229 185.51614478 0.00990689 204.55849838 0.00070715 C226.69680168 -0.00998335 248.83509054 -0.01421889 270.97339606 -0.00806832 C273.330537 -0.00743123 275.68767794 -0.00680249 278.04481888 -0.00618219 C279.20450226 -0.00587364 280.36418564 -0.00556509 281.55901094 -0.00524719 C289.74168714 -0.00351834 297.92435418 -0.00643895 306.10702896 -0.0111413 C316.05958846 -0.01673552 326.01211638 -0.01526358 335.96467224 -0.00457981 C341.04445902 0.000693 346.12419305 0.00270606 351.20397949 -0.00387812 C355.84657129 -0.00980508 360.48906106 -0.00661687 365.1316435 0.00407699 C366.81741578 0.00632462 368.50319655 0.00514453 370.18896344 0.00032541 C372.4672875 -0.00569202 374.74525467 0.00041565 377.02355957 0.00976706 C378.29281037 0.01009176 379.56206116 0.01041646 380.8697741 0.01075101 C383.79873276 0.26144934 383.79873276 0.26144934 385.79873276 2.26144934 C386.05058175 5.24400556 386.05058175 5.24400556 386.05320835 9.16714811 C386.05801807 10.25062278 386.05801807 10.25062278 386.06292495 11.35598582 C386.07129421 13.80134882 386.0652766 16.24647128 386.05942917 18.69183874 C386.06244679 20.45297681 386.0663343 22.21411357 386.07102174 23.97524798 C386.08136246 28.83481609 386.07910446 33.69431093 386.07484114 38.55388522 C386.07238456 43.7881002 386.08137525 49.02229705 386.08887863 54.25650549 C386.101662 64.52334465 386.10341444 74.7901577 386.10107837 85.05700348 C386.09929746 93.40823739 386.10104 101.75946336 386.10530281 110.11069632 C386.105898 111.29805621 386.10649319 112.48541611 386.10710641 113.7087566 C386.10831816 116.12086891 386.1095323 118.53298122 386.11074879 120.94509353 C386.12164037 143.59908453 386.11945544 166.25306068 386.11336394 188.90705253 C386.10820529 209.60571716 386.1194195 230.30433458 386.13846216 251.00298987 C386.15786895 272.26094751 386.16609082 293.51888284 386.16233891 314.77684939 C386.16042964 326.70915933 386.16288674 338.6414292 386.17705345 350.5737319 C386.18900516 360.74366198 386.19033058 370.91352738 386.17826328 381.08345841 C386.1723983 386.26662404 386.17120837 391.44967161 386.18326569 396.63282919 C386.19420686 401.39192517 386.19092447 406.15080572 386.177004 410.90989198 C386.17437928 412.61811743 386.17665227 414.32636021 386.18473987 416.03456853 C386.24494983 429.7181359 385.13642688 443.29389847 381.72597581 456.59068334 C381.0458128 459.28330986 380.60664807 461.59543681 380.36123276 464.32394934 C379.50143736 473.01240811 377.99376361 482.15017134 374.61513901 490.23410559 C373.5376824 492.90970356 372.68248134 495.6411163 371.79873276 498.38644934 C370.4217979 502.55390235 368.9122437 506.40199457 366.79873276 510.26144934 C366.32435776 511.21019934 365.84998276 512.15894934 365.36123276 513.13644934 C361.79873276 520.26144934 361.79873276 520.26144934 360.75967026 522.33176184 C359.96584945 523.92585728 359.19207393 525.52991779 358.42373276 527.13644934 C352.38383282 538.75164153 352.38383282 538.75164153 349.23623276 541.74973059 C347.63524429 543.24354151 347.63524429 543.24354151 346.87295151 545.61691809 C345.57950088 548.80115836 343.82075022 550.94610671 341.61123276 553.57394934 C340.79912338 554.54203527 339.98701401 555.51012121 339.15029526 556.50754309 C337.98627182 557.87072668 337.98627182 557.87072668 336.79873276 559.26144934 C336.22896713 559.9330509 335.65920151 560.60465246 335.07217026 561.29660559 C322.09827438 576.34760302 308.38957713 589.9261157 292.79873276 602.26144934 C291.95052963 602.95625402 291.10232651 603.65105871 290.22842026 604.36691809 C288.22383671 605.9299776 286.34222708 607.19324339 284.11123276 608.38644934 C280.8370721 610.04508001 280.8370721 610.04508001 278.79873276 612.26144934 C278.10392807 612.5308634 277.40912338 612.80027746 276.69326401 613.07785559 C271.93484819 615.02360456 267.67391921 617.85583888 263.30068588 620.54074621 C258.57707073 623.38338815 254.00155913 625.4379507 248.79873276 627.26144934 C247.80873276 627.75644934 246.81873276 628.25144934 245.79873276 628.76144934 C238.83912729 632.24125207 231.54810243 634.24315491 224.06826401 636.29660559 C220.87277022 637.18396331 220.87277022 637.18396331 218.16592026 638.31613684 C211.71364877 640.89278651 204.6076166 641.48978739 197.73232651 642.01535559 C195.79463101 642.06149335 195.79463101 642.06149335 194.79873276 643.26144934 C180.81662386 647.31974852 165.17881319 646.40865473 150.74001694 646.38170385 C148.97316774 646.38214099 147.20631861 646.38301852 145.43946981 646.38429302 C140.6299421 646.38650997 135.82043701 646.38255544 131.01091218 646.37751496 C125.80732749 646.37317006 120.60374393 646.37465973 115.40015793 646.37541723 C106.39969713 646.37593992 97.39924361 646.37281985 88.39878464 646.36717939 C75.385857 646.35902972 62.37293285 646.35644563 49.36000293 646.3551914 C28.24403718 646.35300632 7.12807531 646.34636101 -13.98788834 646.33688879 C-34.49211991 646.32770059 -54.99635043 646.32062665 -75.50058365 646.31638098 C-76.76585319 646.31611825 -78.03112274 646.31585553 -79.33473378 646.31558485 C-85.68263391 646.31427975 -92.03053404 646.31301605 -98.37843418 646.31177294 C-150.98604788 646.30141727 -203.59365737 646.28381378 -256.20126724 646.26144934 C-256.26991316 587.68597983 -256.32279184 529.11051218 -256.35446323 470.5350107 C-256.35820523 463.62180202 -256.36209489 456.70859343 -256.36606216 449.79538488 C-256.36645444 449.10743923 -256.36684672 448.41949358 -256.36725088 447.7107011 C-256.38003386 425.41426275 -256.402567 403.11784723 -256.4301589 380.82142271 C-256.45926522 357.25842733 -256.47725623 333.69545224 -256.48353273 310.13243812 C-256.48765189 296.01682996 -256.50066846 281.9012873 -256.52501664 267.7856993 C-256.54085759 258.11002156 -256.54567131 248.43437775 -256.54177137 238.75868798 C-256.53984729 233.17386821 -256.54282553 227.58916301 -256.55888367 222.00436354 C-256.5734787 216.89111314 -256.57422207 211.77805442 -256.56396393 206.66479521 C-256.56269601 204.81538371 -256.56650484 202.96596026 -256.57591679 201.11657227 C-256.65661217 184.28096692 -256.65661217 184.28096692 -253.20126724 176.26144934 C-252.6666229 174.10307034 -252.16267582 171.93666118 -251.70126724 169.76144934 C-250.68310712 165.19563753 -249.49821325 160.81510714 -247.93173599 156.40988684 C-247.17378606 154.26705826 -247.17378606 154.26705826 -246.62704849 152.05051184 C-244.60264402 144.28814566 -240.96206884 137.47129218 -237.29062271 130.38889074 C-236.20483916 128.26842506 -235.15296662 126.13442289 -234.11142349 123.99191809 C-228.64128115 112.7523829 -222.42300242 103.33609555 -214.25595474 93.84738684 C-211.01404671 90.06830828 -207.88864926 86.19986596 -204.76376724 82.32394934 C-202.58038536 79.63308218 -200.39159422 76.94666467 -198.20126724 74.26144934 C-197.68386978 73.62465246 -197.16647232 72.98785559 -196.63339615 72.33176184 C-190.76655052 65.14771714 -184.97164931 58.78522372 -177.57626724 53.12863684 C-175.17678245 51.32689632 -175.17678245 51.32689632 -173.20126724 49.20676184 C-171.02365037 47.08868918 -168.82585947 45.77990677 -166.20126724 44.26144934 C-163.47981827 42.30666225 -160.79865568 40.30330034 -158.11532974 38.29660559 C-154.92082562 36.06559132 -151.59973149 34.15538033 -148.20126724 32.26144934 C-147.0332058 31.5854683 -145.86652894 30.907089 -144.70126724 30.22629309 C-143.53460058 29.55051184 -142.36793391 28.87473059 -141.20126724 28.19894934 C-140.33501724 27.69138098 -140.33501724 27.69138098 -139.45126724 27.17355871 C-135.47597339 24.87977866 -131.43207604 23.02998604 -127.20126724 21.26144934 C-125.4850488 20.4232383 -123.77576766 19.57055807 -122.07626724 18.69894934 C-117.54183762 16.37378654 -113.12763757 14.37229124 -108.13876724 13.26144934 C-105.22695185 12.56609044 -102.864892 11.63622341 -100.20126724 10.26144934 C-97.87811693 9.56012094 -95.54337646 8.8965976 -93.20126724 8.26144934 C-91.59638443 7.74904699 -91.59638443 7.74904699 -89.95907974 7.22629309 C-84.78248241 5.89716675 -79.75386659 5.86572434 -74.43173599 5.70285559 C-71.24888042 5.49151476 -68.52924316 4.80442347 -65.50247192 3.8070693 C-60.7060712 2.33813976 -56.14188501 1.51649535 -51.15152359 1.09012365 C-50.23095995 1.01038061 -49.31039631 0.93063757 -48.36193681 0.84847808 C-32.28761495 -0.3499358 -16.10753065 -0.02115199 0 0 Z " fill="#E69C9C" transform="translate(296.20126724243164,81.73855066299438)"/>
<path d="M0 0 C1.83691406 -0.00580078 1.83691406 -0.00580078 3.7109375 -0.01171875 C25.69984715 0.01157459 25.69984715 0.01157459 34.625 3.125 C34.625 3.785 34.625 4.445 34.625 5.125 C35.64013672 5.02251953 35.64013672 5.02251953 36.67578125 4.91796875 C40.52339786 5.18806634 43.4493772 6.69092525 46.8125 8.4375 C47.44091797 8.74623047 48.06933594 9.05496094 48.71679688 9.37304688 C51.96016918 11.02074938 53.56810143 12.03965214 55.625 15.125 C56.800625 15.5890625 56.800625 15.5890625 58 16.0625 C61.00620698 17.27929806 62.38510106 18.81510421 64.625 21.125 C65.511875 21.640625 66.39875 22.15625 67.3125 22.6875 C69.625 24.125 69.625 24.125 70.625 27.125 C71.93817556 27.83054389 73.2759069 28.49083124 74.625 29.125 C81.50979654 34.39768749 86.4927194 39.44732322 88.6875 48 C88.996875 49.03125 89.30625 50.0625 89.625 51.125 C90.615 51.455 91.605 51.785 92.625 52.125 C106.51023397 76.20720267 107.89261187 108.99889909 101.82421875 135.640625 C101.14361456 138.15660259 100.42819704 140.64579848 99.625 143.125 C98.965 143.125 98.305 143.125 97.625 143.125 C97.44324219 143.69347656 97.26148438 144.26195312 97.07421875 144.84765625 C95.4853058 149.72847091 93.71195115 154.42935992 91.625 159.125 C91.17125 160.32125 90.7175 161.5175 90.25 162.75 C88.48010221 166.42594156 86.56219765 168.32441619 83.625 171.125 C82.02024821 173.23568338 80.47828747 175.37927831 78.95703125 177.55078125 C78.51746094 178.07027344 78.07789063 178.58976563 77.625 179.125 C76.965 179.125 76.305 179.125 75.625 179.125 C75.356875 179.764375 75.08875 180.40375 74.8125 181.0625 C73.625 183.125 73.625 183.125 70.625 184.125 C70.356875 184.723125 70.08875 185.32125 69.8125 185.9375 C68.10431481 189.08415693 65.63034869 190.21218395 62.625 192.125 C61.59761719 192.785 60.57023438 193.445 59.51171875 194.125 C43.22260439 204.30818261 43.22260439 204.30818261 33.625 205.125 C33.625 205.785 33.625 206.445 33.625 207.125 C9.53179349 214.34689313 -20.4958795 214.21322894 -43.375 203.125 C-45.13457031 202.29548828 -45.13457031 202.29548828 -46.9296875 201.44921875 C-62.10120233 193.97055438 -74.90283516 185.53121855 -84.375 171.125 C-84.375 170.465 -84.375 169.805 -84.375 169.125 C-85.035 169.125 -85.695 169.125 -86.375 169.125 C-86.7875 168.25875 -87.2 167.3925 -87.625 166.5 C-89.28185103 163.12695588 -89.28185103 163.12695588 -91.375 160.25 C-93.2986561 157.24428734 -94.44027469 154.57178582 -95.59375 151.23046875 C-96.38385729 149.1011296 -97.35526253 147.15288702 -98.375 145.125 C-101.39246505 138.51201146 -102.18677051 131.23924028 -103.375 124.125 C-103.63301392 122.99408936 -103.63301392 122.99408936 -103.89624023 121.84033203 C-106.65060803 106.21867031 -105.53877937 87.19614558 -102.125 71.8125 C-101.92052246 70.89033691 -101.71604492 69.96817383 -101.50537109 69.01806641 C-100.26770879 64.0964176 -98.78628904 60.97975661 -95.375 57.125 C-94.69881798 55.46217106 -94.03232303 53.79537381 -93.375 52.125 C-92.11133383 50.25767165 -90.79518206 48.42512966 -89.4375 46.625 C-87.45513558 43.98678792 -85.54684272 41.41570802 -83.8671875 38.57421875 C-78.41938992 29.63241486 -65.84217812 15.99179453 -55.375 13.375 C-50.83840618 12.18065258 -47.0063439 9.79582657 -42.94140625 7.51171875 C-40.13649967 5.99612996 -37.44103552 4.9914883 -34.375 4.125 C-33.72402344 3.88007813 -33.07304687 3.63515625 -32.40234375 3.3828125 C-21.97606947 -0.47877056 -10.98471971 -0.03447088 0 0 Z " fill="#DF8585" transform="translate(477.375,433.875)"/>
<path d="M0 0 C1.71699938 1.61476583 3.38449929 3.28369204 5 5 C6.25490234 6.22009766 6.25490234 6.22009766 7.53515625 7.46484375 C8.36917969 8.28082031 9.20320312 9.09679687 10.0625 9.9375 C11.31740234 11.15759766 11.31740234 11.15759766 12.59765625 12.40234375 C15.11049402 15.11947727 17.03237978 17.86843542 19 21 C19.99 22.56234375 19.99 22.56234375 21 24.15625 C32.60255006 43.55426339 35.12513088 67.00332025 30 89 C29.78214844 89.94230469 29.56429687 90.88460937 29.33984375 91.85546875 C24.87069016 109.56113188 14.62744146 125.37638144 -0.5625 135.75 C-3 137 -3 137 -7 137 C-7.33 137.99 -7.66 138.98 -8 140 C-10.33588613 141.16794307 -12.55873519 142.0994635 -15 143 C-15.90234375 143.34417969 -16.8046875 143.68835938 -17.734375 144.04296875 C-24.03783982 146.40250896 -29.57129027 148.12440174 -36.3515625 148.1328125 C-37.36863281 148.13410156 -38.38570313 148.13539063 -39.43359375 148.13671875 C-41.01333984 148.13091797 -41.01333984 148.13091797 -42.625 148.125 C-43.65496094 148.12886719 -44.68492187 148.13273438 -45.74609375 148.13671875 C-52.54947057 148.12816104 -59.23696843 147.7354399 -66 147 C-66 146.34 -66 145.68 -66 145 C-66.79664063 144.89042969 -67.59328125 144.78085937 -68.4140625 144.66796875 C-79.55972248 143.00018751 -79.55972248 143.00018751 -84 140 C-84.33 139.01 -84.66 138.02 -85 137 C-86.64034193 136.27095914 -88.31301918 135.61344757 -90 135 C-94.06544572 132.865641 -96.83266126 130.31130868 -100 127 C-101.04220703 126.0409375 -101.04220703 126.0409375 -102.10546875 125.0625 C-114.66324799 113.28300858 -123.31322673 92.92524948 -124.10766602 75.66015625 C-124.17085105 72.89740975 -124.18984053 70.13846603 -124.1875 67.375 C-124.18669434 66.3960376 -124.18588867 65.4170752 -124.18505859 64.40844727 C-124.10992613 55.52734849 -123.49792348 47.24510535 -120 39 C-119.34 39 -118.68 39 -118 39 C-117.814375 37.69095703 -117.814375 37.69095703 -117.625 36.35546875 C-115.64361687 25.71791807 -110.187434 17.85545712 -103 10 C-102.36449219 9.29488281 -101.72898437 8.58976562 -101.07421875 7.86328125 C-97.64824526 4.23980153 -94.55181744 2.13063795 -90 0 C-87.9832342 -1.64633943 -85.98260426 -3.31267723 -84 -5 C-60.95288476 -21.19527017 -22.24092089 -14.30214774 0 0 Z " fill="#EAACAC" transform="translate(520,229)"/>
<path d="M0 0 C0 0.66 0 1.32 0 2 C0.60585938 2.10957031 1.21171875 2.21914062 1.8359375 2.33203125 C10.6165295 3.99358943 18.84319012 6.30635024 27 10 C28.0725 10.391875 29.145 10.78375 30.25 11.1875 C42.81627548 16.58111487 53.28570321 27.80345833 62 38 C62.53496094 38.60070312 63.06992187 39.20140625 63.62109375 39.8203125 C72.81998738 50.93875846 77.05441214 65.15431408 80 79 C80.29777344 80.07894531 80.59554687 81.15789062 80.90234375 82.26953125 C85.0293982 97.99798299 84.38327752 115.42133835 80 131 C79.73316406 132.19238281 79.46632813 133.38476562 79.19140625 134.61328125 C76.86372513 144.57575646 72.9616779 153.10194453 68 162 C67.45472656 162.98871094 66.90945313 163.97742188 66.34765625 164.99609375 C63.10316357 170.46175502 59.26342116 175.18933363 55 179.875 C54.51370117 180.41084717 54.02740234 180.94669434 53.52636719 181.4987793 C50.92724539 184.26132152 48.32356052 186.55287115 45.1875 188.6953125 C41.7802093 190.68688263 41.7802093 190.68688263 41 194 C38.46542627 195.27319496 35.99854636 196.38293725 33.375 197.4375 C29.28770205 199.11231362 25.43893242 200.72933358 21.66796875 203.0546875 C17.09859775 205.75186756 12.08265369 206.61717037 6.9375 207.6875 C5.97005859 207.89955078 5.00261719 208.11160156 4.00585938 208.33007812 C1.34117681 208.90824676 -1.32750245 209.4593056 -4 210 C-4.98613281 210.20753906 -5.97226562 210.41507813 -6.98828125 210.62890625 C-25.45550185 212.90437442 -47.22395114 212.30152039 -63.953125 203.546875 C-68.28613148 201.34704094 -72.82455806 199.83975166 -77.41796875 198.2734375 C-80.40248764 196.80149626 -80.68682656 195.92716194 -82 193 C-83.30593252 192.28113806 -84.64703333 191.62586213 -86 191 C-94.59542161 184.90275511 -101.8678451 178.66533727 -108 170 C-108.53238281 169.32710937 -109.06476563 168.65421875 -109.61328125 167.9609375 C-110.99841306 166.00224407 -111.74627218 164.32816993 -112.5 162.0625 C-113.29779011 159.67387843 -114.14251878 157.76802795 -115.46875 155.609375 C-117.09140686 152.84423525 -118.03926616 150.241833 -119 147.1875 C-120.08462633 143.77630879 -121.20014177 140.46899169 -122.625 137.1875 C-126.68817313 126.3701536 -126.40709573 113.428805 -126.375 102.0625 C-126.37478851 101.36411011 -126.37457703 100.66572021 -126.37435913 99.94616699 C-126.32772267 84.48584718 -123.38115805 72.17311634 -117 58 C-116.3298859 56.33471645 -115.66291757 54.66816142 -115 53 C-112.11077256 46.09159973 -107.80118713 40.69790691 -103 35 C-102.48179687 34.35804688 -101.96359375 33.71609375 -101.4296875 33.0546875 C-97.75305573 28.57442038 -93.66602737 24.45748425 -89 21 C-88.34 21 -87.68 21 -87 21 C-87 20.34 -87 19.68 -87 19 C-81.8466721 15.06869287 -76.31276861 11.78010928 -70.13427734 9.79589844 C-67.77342365 8.91550687 -65.66536923 7.78775676 -63.44921875 6.58984375 C-58.05614448 3.87236885 -52.77563962 2.38414696 -46.875 1.1875 C-45.84745605 0.97593262 -44.81991211 0.76436523 -43.76123047 0.54638672 C-29.25723449 -2.18344026 -14.60455167 -1.6712466 0 0 Z M-58 32 C-58.68835938 32.3196875 -59.37671875 32.639375 -60.0859375 32.96875 C-62.24646137 34.00949718 -62.24646137 34.00949718 -64.375 36.4375 C-67 39 -67 39 -69.75 40.25 C-82.26873188 46.99085563 -89.99900821 60.85388411 -94 74 C-94 74.99 -94 75.98 -94 77 C-94.66 77 -95.32 77 -96 77 C-103.19089167 93.94995894 -101.48826154 114.83739518 -96 132 C-95.51466797 133.66675781 -95.51466797 133.66675781 -95.01953125 135.3671875 C-93.12334807 141.5742851 -90.70683471 146.69248666 -87 152 C-86.4225 152.969375 -85.845 153.93875 -85.25 154.9375 C-81.95701629 159.41961671 -77.98723283 163.13912314 -74 167 C-72.98292969 168.05574219 -72.98292969 168.05574219 -71.9453125 169.1328125 C-69.04829728 171.91348173 -65.1365442 175 -61 175 C-60.835 175.598125 -60.67 176.19625 -60.5 176.8125 C-58.17541535 180.20251927 -54.82343377 181.01664648 -51 182 C-48.00560746 182.4813243 -45.02536933 182.79690808 -42 183 C-42 183.66 -42 184.32 -42 185 C-25.97136954 186.67448619 -9.15296433 188.37898346 6 182 C7.54085353 181.45602455 9.08242421 180.91407218 10.625 180.375 C14.05113254 179.1101926 14.05113254 179.1101926 17 177 C17 176.34 17 175.68 17 175 C17.70125 174.9175 18.4025 174.835 19.125 174.75 C31.14710265 171.61379931 39.96823329 158.96966921 46.2109375 149.08203125 C57.45656781 128.70494913 58.8941319 102.13384232 53.22265625 79.9609375 C48.69420144 64.91791595 39.29755805 52.64360758 28 42 C27.17048828 41.18015625 27.17048828 41.18015625 26.32421875 40.34375 C13.46028596 28.30875798 -8.05327658 24.15798112 -25.08984375 24.49194336 C-36.54654721 24.96964844 -47.77372967 26.50893746 -58 32 Z " fill="#242323" transform="translate(496,191)"/>
<path d="M0 0 C1.83691406 -0.00580078 1.83691406 -0.00580078 3.7109375 -0.01171875 C25.69984715 0.01157459 25.69984715 0.01157459 34.625 3.125 C34.625 3.785 34.625 4.445 34.625 5.125 C35.64013672 5.02251953 35.64013672 5.02251953 36.67578125 4.91796875 C40.52339786 5.18806634 43.4493772 6.69092525 46.8125 8.4375 C47.44091797 8.74623047 48.06933594 9.05496094 48.71679688 9.37304688 C51.96016918 11.02074938 53.56810143 12.03965214 55.625 15.125 C56.800625 15.5890625 56.800625 15.5890625 58 16.0625 C61.00620698 17.27929806 62.38510106 18.81510421 64.625 21.125 C65.511875 21.640625 66.39875 22.15625 67.3125 22.6875 C69.625 24.125 69.625 24.125 70.625 27.125 C71.93817556 27.83054389 73.2759069 28.49083124 74.625 29.125 C81.50979654 34.39768749 86.4927194 39.44732322 88.6875 48 C88.996875 49.03125 89.30625 50.0625 89.625 51.125 C90.615 51.455 91.605 51.785 92.625 52.125 C106.51023397 76.20720267 107.89261187 108.99889909 101.82421875 135.640625 C101.14361456 138.15660259 100.42819704 140.64579848 99.625 143.125 C98.965 143.125 98.305 143.125 97.625 143.125 C97.44324219 143.69347656 97.26148438 144.26195312 97.07421875 144.84765625 C95.4853058 149.72847091 93.71195115 154.42935992 91.625 159.125 C91.17125 160.32125 90.7175 161.5175 90.25 162.75 C88.48010221 166.42594156 86.56219765 168.32441619 83.625 171.125 C82.02024821 173.23568338 80.47828747 175.37927831 78.95703125 177.55078125 C78.51746094 178.07027344 78.07789063 178.58976563 77.625 179.125 C76.965 179.125 76.305 179.125 75.625 179.125 C75.356875 179.764375 75.08875 180.40375 74.8125 181.0625 C73.625 183.125 73.625 183.125 70.625 184.125 C70.356875 184.723125 70.08875 185.32125 69.8125 185.9375 C68.10431481 189.08415693 65.63034869 190.21218395 62.625 192.125 C61.59761719 192.785 60.57023438 193.445 59.51171875 194.125 C43.22260439 204.30818261 43.22260439 204.30818261 33.625 205.125 C33.625 205.785 33.625 206.445 33.625 207.125 C9.53179349 214.34689313 -20.4958795 214.21322894 -43.375 203.125 C-45.13457031 202.29548828 -45.13457031 202.29548828 -46.9296875 201.44921875 C-62.10120233 193.97055438 -74.90283516 185.53121855 -84.375 171.125 C-84.375 170.465 -84.375 169.805 -84.375 169.125 C-85.035 169.125 -85.695 169.125 -86.375 169.125 C-86.7875 168.25875 -87.2 167.3925 -87.625 166.5 C-89.28185103 163.12695588 -89.28185103 163.12695588 -91.375 160.25 C-93.2986561 157.24428734 -94.44027469 154.57178582 -95.59375 151.23046875 C-96.38385729 149.1011296 -97.35526253 147.15288702 -98.375 145.125 C-101.39246505 138.51201146 -102.18677051 131.23924028 -103.375 124.125 C-103.63301392 122.99408936 -103.63301392 122.99408936 -103.89624023 121.84033203 C-106.65060803 106.21867031 -105.53877937 87.19614558 -102.125 71.8125 C-101.92052246 70.89033691 -101.71604492 69.96817383 -101.50537109 69.01806641 C-100.26770879 64.0964176 -98.78628904 60.97975661 -95.375 57.125 C-94.69881798 55.46217106 -94.03232303 53.79537381 -93.375 52.125 C-92.11133383 50.25767165 -90.79518206 48.42512966 -89.4375 46.625 C-87.45513558 43.98678792 -85.54684272 41.41570802 -83.8671875 38.57421875 C-78.41938992 29.63241486 -65.84217812 15.99179453 -55.375 13.375 C-50.83840618 12.18065258 -47.0063439 9.79582657 -42.94140625 7.51171875 C-40.13649967 5.99612996 -37.44103552 4.9914883 -34.375 4.125 C-33.72402344 3.88007813 -33.07304687 3.63515625 -32.40234375 3.3828125 C-21.97606947 -0.47877056 -10.98471971 -0.03447088 0 0 Z M-29.375 29.125 C-29.375 29.785 -29.375 30.445 -29.375 31.125 C-30.035 31.0425 -30.695 30.96 -31.375 30.875 C-44.23714958 31.9468458 -55.20415324 45.32284332 -63.0625 54.4375 C-66.59145899 58.7826808 -68.86477999 62.82602655 -70.62109375 68.12890625 C-71.375 70.125 -71.375 70.125 -73.375 72.125 C-73.79855123 74.26092982 -73.79855123 74.26092982 -73.9375 76.625 C-74.28040541 80.93581081 -74.28040541 80.93581081 -75.375 83.125 C-75.68932523 86.23769291 -75.88589874 89.35117578 -76.09375 92.47265625 C-76.375 95.125 -76.375 95.125 -77.375 96.125 C-77.65961604 99.90866836 -77.60700206 103.70693394 -77.625 107.5 C-77.645625 108.54800781 -77.66625 109.59601563 -77.6875 110.67578125 C-77.72344613 117.94588659 -76.65206391 124.22340132 -74.375 131.125 C-73.715 131.125 -73.055 131.125 -72.375 131.125 C-72.27960938 132.13175781 -72.18421875 133.13851562 -72.0859375 134.17578125 C-71.49961094 138.26258025 -69.91369718 141.68675555 -68 145.3125 C-67.69578125 145.91513672 -67.3915625 146.51777344 -67.078125 147.13867188 C-65.7908389 149.64447879 -64.47674508 151.99074613 -62.7734375 154.23828125 C-61.375 156.125 -61.375 156.125 -60.45703125 158.5859375 C-59.14351797 161.66818888 -57.45143803 163.41325725 -55.0625 165.75 C-54.30324219 166.50539063 -53.54398437 167.26078125 -52.76171875 168.0390625 C-50.4139703 170.09094085 -48.06174982 171.55990302 -45.375 173.125 C-44.26273656 174.07392405 -43.15841783 175.0322444 -42.0625 176 C-36.04518754 180.62516178 -28.55782792 182.0896196 -21.375 184.125 C-19.99344727 184.64731201 -19.99344727 184.64731201 -18.58398438 185.18017578 C-14.97555593 186.24260869 -11.98395346 186.35242695 -8.2265625 186.3203125 C-7.56917084 186.3174826 -6.91177917 186.31465271 -6.23446655 186.31173706 C-4.15611767 186.30063447 -2.07821634 186.27554986 0 186.25 C1.41796248 186.23995731 2.83593179 186.23083373 4.25390625 186.22265625 C7.71108037 186.20072805 11.16799642 186.16626818 14.625 186.125 C14.625 185.465 14.625 184.805 14.625 184.125 C15.841875 184.16625 17.05875 184.2075 18.3125 184.25 C21.84394127 184.26254508 24.42503566 183.72498217 27.625 182.125 C27.625 181.465 27.625 180.805 27.625 180.125 C28.800625 179.9084375 28.800625 179.9084375 30 179.6875 C32.58921018 179.24701075 32.58921018 179.24701075 34.625 178.125 C34.625 177.465 34.625 176.805 34.625 176.125 C35.33269531 176.02832031 36.04039062 175.93164062 36.76953125 175.83203125 C40.10198582 175.00689544 42.42098974 173.65470367 45.3125 171.8125 C46.26511719 171.21824219 47.21773437 170.62398437 48.19921875 170.01171875 C50.64747336 168.10752072 51.40020203 166.88819155 52.625 164.125 C53.73875 163.691875 53.73875 163.691875 54.875 163.25 C61.7671046 160.43050266 65.75117239 153.70846962 68.625 147.125 C69.00480482 145.46830534 69.35083543 143.80241548 69.625 142.125 C70.615 141.795 71.605 141.465 72.625 141.125 C75.7719608 135.11080825 76.59767408 127.75592186 77.625 121.125 C77.80417969 120.03445313 77.98335937 118.94390625 78.16796875 117.8203125 C79.83207402 104.36523908 80.27159547 87.14350139 73.625 75.125 C72.965 75.125 72.305 75.125 71.625 75.125 C71.51542969 74.46113281 71.40585937 73.79726563 71.29296875 73.11328125 C70.22518916 67.16670384 69.22498197 62.6383159 64.75 58.3125 C62.80785912 56.31323733 61.77948679 54.71055199 60.4375 52.3125 C57.89935113 48.07434488 54.69056854 45.52705521 50.7109375 42.66796875 C48.8153681 41.26581536 47.26206355 39.81167154 45.625 38.125 C40.16335026 33.55504818 35.65160326 32.07224833 28.625 31.125 C28.625 30.465 28.625 29.805 28.625 29.125 C12.82712934 23.05770185 -13.75480347 21.31490173 -29.375 29.125 Z " fill="#232121" transform="translate(477.375,433.875)"/>
<path d="M0 0 C1.86782768 0.01508275 3.73566722 0.02876476 5.60351562 0.04101562 C10.1318089 0.0737169 14.65951982 0.12529809 19.1875 0.1875 C19.1875 0.8475 19.1875 1.5075 19.1875 2.1875 C20.734375 2.125625 20.734375 2.125625 22.3125 2.0625 C26.05579627 2.18325149 28.72484547 2.83622018 32.1875 4.1875 C32.1875 4.8475 32.1875 5.5075 32.1875 6.1875 C32.77917969 6.38085938 33.37085938 6.57421875 33.98046875 6.7734375 C45.29186621 10.50084743 45.29186621 10.50084743 48.0625 12.625 C50.20938183 14.37746849 50.20938183 14.37746849 53.3125 15.1875 C59.31626977 17.68580071 63.62777138 22.91357196 67.1875 28.1875 C68.44840355 31.89509298 68.536432 34.50291721 67.1875 38.1875 C64.99689738 41.4384475 62.69576819 43.43900621 59.1875 45.1875 C54.32924187 46.04313352 49.91045005 45.48739451 45.1875 44.1875 C45.1875 43.5275 45.1875 42.8675 45.1875 42.1875 C44.5275 42.1875 43.8675 42.1875 43.1875 42.1875 C41.49933067 40.54261706 39.83396685 38.87412458 38.1875 37.1875 C37.1975 36.5275 36.2075 35.8675 35.1875 35.1875 C35.1875 34.5275 35.1875 33.8675 35.1875 33.1875 C34.094375 32.89875 33.00125 32.61 31.875 32.3125 C28.1875 31.1875 28.1875 31.1875 25.1875 29.1875 C8.09935422 24.47799838 -9.47956416 25.47620277 -26.8125 28.1875 C-26.8125 29.1775 -26.8125 30.1675 -26.8125 31.1875 C-27.62332031 31.37183594 -28.43414062 31.55617188 -29.26953125 31.74609375 C-38.30748883 34.11342839 -44.07747815 37.80066983 -50.8125 44.1875 C-51.73675781 45.05632812 -52.66101563 45.92515625 -53.61328125 46.8203125 C-58.35504948 51.41797489 -62.34105413 55.48589398 -64.8125 61.703125 C-65.88275548 64.36204097 -67.2461517 66.5409871 -68.8125 68.9375 C-71.22932007 72.89709599 -72.66492124 76.28934063 -73.40332031 80.859375 C-73.78063666 83.00620594 -74.2933393 85.06051525 -74.84375 87.16796875 C-76.16613456 93.07320438 -76.11180961 98.9103821 -76.0625 104.9375 C-76.05561157 106.66468262 -76.05561157 106.66468262 -76.04858398 108.42675781 C-75.96534433 116.21269733 -75.43483178 123.56135643 -73.8125 131.1875 C-73.47232065 133.18634695 -73.13728945 135.18609476 -72.8125 137.1875 C-72.1525 137.1875 -71.4925 137.1875 -70.8125 137.1875 C-67.85142136 143.00755111 -64.94438762 148.79183713 -62.875 155 C-61.54566209 157.73687217 -60.49975363 157.88226252 -57.8125 159.1875 C-56.5612212 160.6633673 -55.31228973 162.14234848 -54.1171875 163.6640625 C-52.68306633 165.43461001 -52.68306633 165.43461001 -50 167.4375 C-49.278125 168.015 -48.55625 168.5925 -47.8125 169.1875 C-47.8125 169.8475 -47.8125 170.5075 -47.8125 171.1875 C-47.29429687 171.43757812 -46.77609375 171.68765625 -46.2421875 171.9453125 C-44.34761312 172.91392127 -42.48334698 173.94188414 -40.6328125 174.9921875 C-22.27351592 185.37886135 -2.51375228 188.53327793 18.1875 183.1875 C22.30348227 181.7412102 26.25277684 180.06835348 30.1875 178.1875 C31.17234375 177.73632812 32.1571875 177.28515625 33.171875 176.8203125 C36.47658408 175.0309752 39.11305639 172.89998927 42 170.5 C46.54793772 167.02415678 49.52336775 165.07742582 55.2890625 165.75390625 C60.12787016 166.85906602 62.93941276 168.35939718 66.1875 172.1875 C67.3546568 175.68897041 67.32107453 178.51420036 67.1875 182.1875 C66.8575 182.8475 66.5275 183.5075 66.1875 184.1875 C65.5275 184.1875 64.8675 184.1875 64.1875 184.1875 C63.93226563 184.78046875 63.67703125 185.3734375 63.4140625 185.984375 C57.28806684 196.98775574 37.94751196 203.4787292 26.703125 207.22265625 C15.87718983 210.19377401 4.97286683 210.38299362 -6.1875 210.5 C-7.28094727 210.51780518 -8.37439453 210.53561035 -9.50097656 210.55395508 C-15.65797974 210.54786738 -20.85648538 209.88801132 -26.69091797 207.90698242 C-29.92599669 206.80988495 -33.22165849 206.33851105 -36.5859375 205.8125 C-39.19411179 205.0803809 -40.67571418 203.82667817 -42.8125 202.1875 C-45.08195408 201.33792967 -47.36089136 200.69149705 -49.69140625 200.03125 C-52.04466728 199.09514616 -53.09473969 198.01232938 -54.8125 196.1875 C-55.95545211 195.48094779 -57.12342687 194.81332796 -58.3125 194.1875 C-60.88968822 192.7714029 -62.82554019 191.38361348 -64.8125 189.1875 C-65.4725 188.8575 -66.1325 188.5275 -66.8125 188.1875 C-66.8125 187.5275 -66.8125 186.8675 -66.8125 186.1875 C-68.4625 185.5275 -70.1125 184.8675 -71.8125 184.1875 C-71.8125 183.1975 -71.8125 182.2075 -71.8125 181.1875 C-72.4725 181.1875 -73.1325 181.1875 -73.8125 181.1875 C-73.8125 180.5275 -73.8125 179.8675 -73.8125 179.1875 C-74.8025 178.8575 -75.7925 178.5275 -76.8125 178.1875 C-76.8125 177.5275 -76.8125 176.8675 -76.8125 176.1875 C-77.4725 176.1875 -78.1325 176.1875 -78.8125 176.1875 C-80.34120322 174.21730488 -81.74447727 172.25814256 -83.125 170.1875 C-83.53016846 169.58591064 -83.93533691 168.98432129 -84.3527832 168.36450195 C-85.15526949 167.16905968 -85.9547444 165.9715896 -86.75097656 164.77197266 C-87.57995828 163.53460115 -88.4370614 162.31605699 -89.3046875 161.10546875 C-93.14710895 155.54274749 -95.21531024 149.21506654 -97.48046875 142.89453125 C-98.22183054 140.83132791 -98.99541653 138.77643667 -99.88671875 136.7734375 C-106.91476178 117.14236371 -106.57003627 87.83146775 -97.765625 68.94140625 C-97.09093815 67.60914418 -96.39829631 66.28565606 -95.6796875 64.9765625 C-94.75584408 63.07061526 -94.2583641 61.25303368 -93.8125 59.1875 C-93.1525 59.1875 -92.4925 59.1875 -91.8125 59.1875 C-91.668125 58.445 -91.52375 57.7025 -91.375 56.9375 C-90.91062508 54.66722261 -90.39386431 52.42990521 -89.8125 50.1875 C-89.1525 50.1875 -88.4925 50.1875 -87.8125 50.1875 C-87.709375 49.61 -87.60625 49.0325 -87.5 48.4375 C-86.8125 46.1875 -86.8125 46.1875 -85.4375 44.375 C-83.62218813 42.16883901 -83.62218813 42.16883901 -82.75 39 C-80.46205326 33.39393156 -75.31107809 29.99752022 -70.8125 26.1875 C-69.31221795 24.77113203 -67.81220395 23.35448007 -66.3125 21.9375 C-61.48253191 17.64037537 -55.48288293 13.1875 -48.8125 13.1875 C-48.8125 12.5275 -48.8125 11.8675 -48.8125 11.1875 C-45.31624951 8.85666634 -42.12154945 8.10245397 -38.08984375 7.06640625 C-35.47755332 6.30965021 -35.47755332 6.30965021 -33.8125 3.1875 C-23.2183462 -1.14051056 -11.19425311 -0.15847977 0 0 Z " fill="#232222" transform="translate(223.8125,433.8125)"/>
<path d="M0 0 C1.57254044 -0.00284752 1.57254044 -0.00284752 3.17684937 -0.00575256 C6.6277424 -0.00944343 10.07842266 0.00122642 13.52929688 0.01245117 C15.94575984 0.01364485 18.36222328 0.01409574 20.77868652 0.01383972 C25.84239613 0.01540209 30.90603481 0.02366841 35.96972656 0.03710938 C42.4204323 0.05402574 48.87105966 0.05792549 55.32178497 0.05716419 C60.31503022 0.05743798 65.30825877 0.06295356 70.30149841 0.07016563 C72.67744317 0.07332156 75.05338981 0.07531241 77.42933655 0.07605934 C84.70336946 0.08084682 91.97486168 0.13231067 99.24804688 0.24291992 C100.5060762 0.25551661 100.5060762 0.25551661 101.78952026 0.26836777 C104.01380975 0.29880661 106.23398257 0.36259404 108.45703125 0.44091797 C109.64373413 0.474207 110.83043701 0.50749603 112.05310059 0.54179382 C116.38399213 1.49220138 118.1213748 3.11706167 121.24804688 6.24291992 C122.68784021 10.56229993 122.81140026 14.72868029 122.24804688 19.24291992 C120.31054688 21.74291992 120.31054688 21.74291992 118.24804688 23.24291992 C117.91804687 23.90291992 117.58804688 24.56291992 117.24804688 25.24291992 C114.36171006 26.24768907 111.6661218 26.36667346 108.62896729 26.36317444 C107.24500511 26.36523643 107.24500511 26.36523643 105.83308411 26.36734009 C104.82823471 26.36374481 103.82338531 26.36014954 102.78808594 26.35644531 C101.72436264 26.35659134 100.66063934 26.35673737 99.56468201 26.35688782 C96.04765791 26.35619098 92.53068673 26.34840925 89.01367188 26.34057617 C86.57558216 26.33871118 84.13749208 26.33728766 81.69940186 26.33628845 C75.28130052 26.33246968 68.8632218 26.32264482 62.44512939 26.31158447 C54.74503548 26.29955847 47.044934 26.29496506 39.34483337 26.28913116 C27.64588881 26.27943277 15.94699387 26.26027169 4.24804688 26.24291992 C4.24804688 47.36291992 4.24804688 68.48291992 4.24804688 90.24291992 C9.89285156 90.2197168 15.53765625 90.19651367 21.35351562 90.17260742 C24.93099419 90.16238758 28.50845473 90.15275958 32.0859375 90.14526367 C37.76346579 90.13331114 43.44092953 90.11917557 49.1184082 90.09204102 C53.69604004 90.07030007 58.27360264 90.05834862 62.85128212 90.05316544 C64.59717206 90.04947194 66.34305824 90.04225947 68.08891869 90.03145981 C70.53551783 90.01692826 72.98183139 90.01494268 75.4284668 90.01586914 C76.50956474 90.00508331 76.50956474 90.00508331 77.61250305 89.99407959 C82.43850699 90.01383605 86.15652904 90.59958448 89.99804688 93.61791992 C92.54697736 96.93152955 92.75748016 100.97077911 92.61099243 105.08874512 C92.02693247 108.55529052 90.89760529 110.80695907 88.70941162 113.55810547 C82.9226846 117.51914429 74.47390026 116.1854504 67.72460938 116.02416992 C65.89474972 116.00923955 64.06485797 115.99785628 62.23495483 115.98986816 C57.43038856 115.95939608 52.62777283 115.88087761 47.82397461 115.79223633 C42.91742337 115.71023721 38.01055531 115.67382679 33.10351562 115.63354492 C23.48417139 115.54787694 13.86627164 115.41143111 4.24804688 115.24291992 C4.25470871 116.20012436 4.26137054 117.1573288 4.26823425 118.14353943 C4.32921013 127.19112778 4.37409835 136.2386741 4.40348339 145.28642178 C4.41909872 149.9372919 4.44026099 154.58799532 4.47436523 159.23876953 C4.50710674 163.73213895 4.52493094 168.22534864 4.5326786 172.7188282 C4.53819567 174.4279335 4.54896885 176.13703065 4.56523705 177.84606743 C4.75205032 198.2961171 4.75205032 198.2961171 -0.21565247 203.8915863 C-3.18835348 206.506381 -6.21753183 207.15216914 -10.06445312 207.80541992 C-15.32180604 207.00345083 -18.28434471 204.16490462 -21.75195312 200.24291992 C-24.1766146 196.57720361 -24.04043853 192.91224504 -24.02610779 188.66506958 C-24.03134447 187.89817743 -24.03658115 187.13128528 -24.04197651 186.34115398 C-24.05698749 183.7694569 -24.0576819 181.1979586 -24.05834961 178.6262207 C-24.06597031 176.78316919 -24.07439766 174.94012085 -24.08357239 173.09707642 C-24.10553197 168.08879956 -24.11431816 163.08058376 -24.11939883 158.07226419 C-24.12304042 154.94377701 -24.12927943 151.81530587 -24.13640022 148.6868248 C-24.16089897 137.77403815 -24.17394772 126.86129907 -24.17749023 115.94848633 C-24.18112671 105.77370816 -24.21102904 95.59923142 -24.25289482 85.42454541 C-24.28757322 76.69067477 -24.30303824 67.95690416 -24.30373627 59.22296512 C-24.30452986 54.00580828 -24.31330659 48.78895847 -24.34173393 43.57187271 C-24.3678728 38.66502816 -24.37014315 33.75874614 -24.35407829 28.85186386 C-24.35226052 27.05152919 -24.35898411 25.25116248 -24.374897 23.45089722 C-24.39530981 20.9915098 -24.38483586 18.53409952 -24.36668396 16.07473755 C-24.37988393 15.3634448 -24.3930839 14.65215204 -24.40668386 13.91930497 C-24.34348696 10.16680639 -23.7247642 7.7457146 -21.44106388 4.83841991 C-15.601184 -0.79816763 -7.64710967 -0.04408922 0 0 Z " fill="#232222" transform="translate(173.751953125,192.757080078125)"/>
<path d="M0 0 C-0.20703125 1.8359375 -0.20703125 1.8359375 -1 4 C-3.01171875 5.3515625 -3.01171875 5.3515625 -5.6875 6.625 C-10.42968638 9.06383871 -14.74583814 11.7672889 -19.0625 14.875 C-19.60285889 15.26123535 -20.14321777 15.6474707 -20.69995117 16.04541016 C-22.4842628 17.34140892 -24.24362174 18.66638681 -26 20 C-26.70946777 20.52924072 -27.41893555 21.05848145 -28.14990234 21.60375977 C-35.51624072 27.27337428 -42.04526669 33.7068207 -48.59521484 40.27954102 C-50.4880317 42.17551175 -52.39378938 44.05775358 -54.30078125 45.93945312 C-64.12845205 55.71512566 -72.89636057 65.94757424 -80.0625 77.875 C-80.46533203 78.5335498 -80.86816406 79.19209961 -81.28320312 79.87060547 C-82.11291027 81.23004374 -82.93929036 82.59151862 -83.76220703 83.95507812 C-85.01508177 86.02491615 -86.28520737 88.08335423 -87.55859375 90.140625 C-88.37303949 91.46835539 -89.18686563 92.79646609 -90 94.125 C-90.37390869 94.72812012 -90.74781738 95.33124023 -91.13305664 95.95263672 C-93.30810413 99.54733201 -94.74427263 103.00351115 -96 107 C-96.76052477 108.55726501 -97.55210999 110.09977075 -98.375 111.625 C-100.87765931 116.47528663 -102.54253293 121.40803555 -104.10546875 126.62890625 C-105 129 -105 129 -107 130 C-107 128.68 -107 127.36 -107 126 C-107.66 125.34 -108.32 124.68 -109 124 C-107.01055605 115.37907621 -103.12861072 107.91936486 -99.08935547 100.12744141 C-98.00357192 98.00697573 -96.95169938 95.87297355 -95.91015625 93.73046875 C-90.4400139 82.49093356 -84.22173518 73.07464622 -76.0546875 63.5859375 C-72.81277947 59.80685894 -69.68738202 55.93841662 -66.5625 52.0625 C-64.37911811 49.37163284 -62.19032698 46.68521533 -60 44 C-59.48260254 43.36320312 -58.96520508 42.72640625 -58.43212891 42.0703125 C-52.56528328 34.88626781 -46.77038207 28.52377438 -39.375 22.8671875 C-36.97551521 21.06544698 -36.97551521 21.06544698 -35 18.9453125 C-32.82238313 16.82723984 -30.62459223 15.51845744 -28 14 C-26.19614099 12.70430776 -24.40483444 11.39100106 -22.625 10.0625 C-18.52505376 7.05366848 -14.46961142 4.41359017 -10 2 C-9.13375 1.401875 -8.2675 0.80375 -7.375 0.1875 C-4.45655027 -1.27172487 -3.05616592 -0.96050929 0 0 Z " fill="#F0B8BD" transform="translate(158,112)"/>
<path d="M0 0 C0.99 0.66 1.98 1.32 3 2 C2.525625 2.598125 2.05125 3.19625 1.5625 3.8125 C-0.16465744 6.00382924 -0.16465744 6.00382924 -1 9 C-2.55859375 10.09765625 -2.55859375 10.09765625 -4.4375 11.0625 C-6.74149765 12.26019398 -8.13152817 13.13152817 -10 15 C-10.69480469 15.26941406 -11.38960937 15.53882813 -12.10546875 15.81640625 C-16.86388456 17.76215523 -21.12481354 20.59438955 -25.49804688 23.27929688 C-30.22166202 26.12193882 -34.79717363 28.17650137 -40 30 C-40.99 30.495 -41.98 30.99 -43 31.5 C-49.95960547 34.97980273 -57.25063033 36.98170557 -64.73046875 39.03515625 C-67.92404619 39.92179565 -67.92404619 39.92179565 -70.62109375 41.05078125 C-76.81946989 43.52402493 -83.37381722 44.2880949 -90 44 C-89 41 -89 41 -87 39 C-84.875 39.375 -84.875 39.375 -83 40 C-83 39.34 -83 38.68 -83 38 C-81.68 38.33 -80.36 38.66 -79 39 C-79 38.34 -79 37.68 -79 37 C-74.25 35.875 -74.25 35.875 -72 37 C-72 36.34 -72 35.68 -72 35 C-68.25 33.875 -68.25 33.875 -66 35 C-66 34.34 -66 33.68 -66 33 C-64.49759766 32.51080078 -64.49759766 32.51080078 -62.96484375 32.01171875 C-61.6223418 31.57047685 -60.27989693 31.12906129 -58.9375 30.6875 C-57.95233398 30.36749023 -57.95233398 30.36749023 -56.94726562 30.04101562 C-52.52031274 28.5799031 -48.26475594 26.89492464 -44 25 C-43.34346436 24.7124585 -42.68692871 24.42491699 -42.01049805 24.12866211 C-27.2507894 17.60613684 -12.84757953 9.82920505 0 0 Z " fill="#E3888F" transform="translate(585,679)"/>
<path d="M0 0 C0.66 0 1.32 0 2 0 C0.67704331 2.87067039 -0.80204765 5.12775335 -2.87109375 7.51171875 C-3.43997314 8.17824463 -4.00885254 8.84477051 -4.5949707 9.53149414 C-5.20300537 10.24297607 -5.81104004 10.95445801 -6.4375 11.6875 C-23.24111735 31.74858681 -36.79686182 55.46892309 -44.95703125 80.3671875 C-46 83 -46 83 -48 84 C-48 82.68 -48 81.36 -48 80 C-48.66 79.34 -49.32 78.68 -50 78 C-48.01055605 69.37907621 -44.12861072 61.91936486 -40.08935547 54.12744141 C-39.00357192 52.00697573 -37.95169938 49.87297355 -36.91015625 47.73046875 C-22.89193417 18.93067264 -22.89193417 18.93067264 -12.984375 13.99609375 C-9.98723491 12.49162383 -8.43183195 10.11403392 -6.375 7.5 C-2.08860759 2.08860759 -2.08860759 2.08860759 0 0 Z " fill="#EDAFB5" transform="translate(99,158)"/>
<path d="M0 0 C0.495 1.485 0.495 1.485 1 3 C-2.16959492 7.51427155 -5.33654846 10.00247161 -10 13 C-11.03898437 13.68320312 -12.07796875 14.36640625 -13.1484375 15.0703125 C-19.93267843 19.39054341 -25.69881088 23 -34 23 C-34 23.66 -34 24.32 -34 25 C-39.48149285 27.20370827 -44.67231154 28.74819405 -50.5 29.6875 C-51.27827148 29.81342529 -52.05654297 29.93935059 -52.85839844 30.0690918 C-70.05967574 32.64579429 -86.57315048 30.62114784 -103 25 C-103 24.67 -103 24.34 -103 24 C-98.36214468 23.74234137 -94.87861536 23.91792685 -90.5 25.4921875 C-84.43298567 27.37981486 -78.68683733 27.41572121 -72.375 27.3125 C-70.65422241 27.29340576 -70.65422241 27.29340576 -68.89868164 27.27392578 C-45.27032991 26.87104682 -20.36293641 21.36293641 -3 4 C-2.67 3.34 -2.34 2.68 -2 2 C-1.34 2 -0.68 2 0 2 C0 1.34 0 0.68 0 0 Z " fill="#75494B" transform="translate(290,616)"/>
<path d="M0 0 C0.495 0.99 0.495 0.99 1 2 C-2.69380435 7.65613791 -6.76151472 11.76021875 -12 16 C-12.73734375 16.60070312 -13.4746875 17.20140625 -14.234375 17.8203125 C-26.71529363 27.76200975 -26.71529363 27.76200975 -32 28.3125 C-32.66 28.209375 -33.32 28.10625 -34 28 C-34 28.66 -34 29.32 -34 30 C-37.4019487 32.09350689 -40.05272412 32.17942163 -44 32 C-44 32.66 -44 33.32 -44 34 C-67.71391396 42.21538543 -92.06887539 42.02957683 -116 35 C-112.72300352 33.75358572 -110.23609116 34.23267055 -106.87451172 34.97973633 C-89.94968223 38.73702443 -71.99499892 37.94723399 -55 35 C-52.66746795 34.66110506 -50.33432243 34.32633475 -48 34 C-48 33.34 -48 32.68 -48 32 C-47.319375 31.81566406 -46.63875 31.63132812 -45.9375 31.44140625 C-39.2907564 29.45268642 -33.46874538 26.84004055 -27.4375 23.4375 C-26.40206055 22.85560913 -26.40206055 22.85560913 -25.34570312 22.26196289 C-22.16762609 20.4257668 -19.56843417 18.58942597 -17 16 C-15.8553125 15.38125 -15.8553125 15.38125 -14.6875 14.75 C-11.64759178 12.77052488 -9.77056845 10.56481475 -7.48828125 7.78125 C-5.46546042 5.3602361 -3.26197291 3.19734511 -1 1 C-0.67 0.67 -0.34 0.34 0 0 Z " fill="#B36365" transform="translate(559,607)"/>
<path d="M0 0 C-0.33 1.65 -0.66 3.3 -1 5 C-1.99 4.67 -2.98 4.34 -4 4 C-6.15482019 4.61678668 -6.15482019 4.61678668 -8.45703125 5.68359375 C-15.09311753 8.48667467 -21.88115817 10.76572553 -28.69726562 13.08789062 C-33.89804792 14.87447165 -38.9825172 16.74739583 -44 19 C-44.33 18.01 -44.66 17.02 -45 16 C-40.49445543 11.09690738 -36.31728141 8.491297 -29.875 6.9375 C-26.76948983 6.18616689 -24.7590779 5.4240402 -22 4 C-19.67684969 3.2986716 -17.34210921 2.63514826 -15 2 C-13.865625 1.62875 -12.73125 1.2575 -11.5625 0.875 C-7.49736935 -0.12345314 -4.16859302 -0.14626642 0 0 Z " fill="#EEB3BA" transform="translate(218,88)"/>
<path d="M0 0 C3.3287521 1.10958403 4.01489699 1.92544504 6.1875 4.5625 C18.1211385 18.48923053 33.87071038 28.65688303 52.65039062 30.22070312 C55.49972154 30.33934146 58.33572498 30.37951908 61.1875 30.375 C62.69836182 30.37367065 62.69836182 30.37367065 64.23974609 30.37231445 C74.4487048 30.21108591 83.21469945 28.4378233 92 23 C93.134375 22.525625 94.26875 22.05125 95.4375 21.5625 C99.01296676 19.99431283 101.82877169 18.24306393 105 16 C105.66 16.33 106.32 16.66 107 17 C101.88951115 21.22976968 97.28609702 24.69509776 91 27 C90.01902344 27.4125 89.03804688 27.825 88.02734375 28.25 C81.20255713 31.05973672 75.36231303 32.84878433 68 33 C67.28924316 33.02964844 66.57848633 33.05929687 65.84619141 33.08984375 C48.26084491 33.79935944 33.91512239 30.54638942 19 21 C17.28948138 19.37837069 15.61329253 17.71838377 14 16 C13.195625 15.38125 12.39125 14.7625 11.5625 14.125 C8.82811498 11.8574612 6.6817852 9.41654474 4.4296875 6.68359375 C3.0178472 4.95923569 3.0178472 4.95923569 1.3203125 3.41015625 C0 2 0 2 0 0 Z " fill="#8E5354" transform="translate(161,587)"/>
<path d="M0 0 C0 0.66 0 1.32 0 2 C-1.98 2.33 -3.96 2.66 -6 3 C-6.33 3.99 -6.66 4.98 -7 6 C-8.65 6.33 -10.3 6.66 -12 7 C-12 8.32 -12 9.64 -12 11 C-12.95261719 11.26554688 -13.90523437 11.53109375 -14.88671875 11.8046875 C-16.14097656 12.15789063 -17.39523437 12.51109375 -18.6875 12.875 C-19.92886719 13.22304688 -21.17023437 13.57109375 -22.44921875 13.9296875 C-25.882171 14.90758808 -25.882171 14.90758808 -28.65234375 16.0625 C-34.83727249 18.53235507 -41.38840948 19.28746046 -48 19 C-47 16 -47 16 -45 14 C-42.875 14.375 -42.875 14.375 -41 15 C-41 14.34 -41 13.68 -41 13 C-39.68 13.33 -38.36 13.66 -37 14 C-37 13.34 -37 12.68 -37 12 C-32.25 10.875 -32.25 10.875 -30 12 C-30 11.34 -30 10.68 -30 10 C-26.25 8.875 -26.25 8.875 -24 10 C-24 9.34 -24 8.68 -24 8 C-22.98679687 7.67386719 -21.97359375 7.34773437 -20.9296875 7.01171875 C-19.57804496 6.57055764 -18.22648693 6.12913758 -16.875 5.6875 C-16.20984375 5.47416016 -15.5446875 5.26082031 -14.859375 5.04101562 C-11.64164778 3.98421306 -8.73237439 2.86492182 -5.6953125 1.33203125 C-3 0 -3 0 0 0 Z " fill="#DF7C81" transform="translate(543,704)"/>
<path d="M0 0 C1.00849599 2.61844441 1.09689155 3.74007788 0.1015625 6.41015625 C-6.19448384 17.71972097 -14.901618 30.28687517 -27 36 C-28.32 36 -29.64 36 -31 36 C-31.33 36.99 -31.66 37.98 -32 39 C-34.33588613 40.16794307 -36.55873519 41.0994635 -39 42 C-39.90234375 42.34417969 -40.8046875 42.68835938 -41.734375 43.04296875 C-48.20639615 45.4656037 -53.77687791 47.13488301 -60.73828125 47.09765625 C-61.80498047 47.09443359 -62.87167969 47.09121094 -63.97070312 47.08789062 C-65.62489258 47.07532227 -65.62489258 47.07532227 -67.3125 47.0625 C-68.43462891 47.05798828 -69.55675781 47.05347656 -70.71289062 47.04882812 C-73.4753151 47.03707313 -76.23762998 47.02064077 -79 47 C-79 46.67 -79 46.34 -79 46 C-78.21463867 45.96559814 -77.42927734 45.93119629 -76.62011719 45.89575195 C-72.99527096 45.72398985 -69.37305904 45.51843847 -65.75 45.3125 C-63.89761719 45.23225586 -63.89761719 45.23225586 -62.0078125 45.15039062 C-54.51532211 44.69689779 -48.49813584 43.44778682 -41.69238281 40.24291992 C-39 39 -39 39 -35.72167969 37.96606445 C-32.86405279 37.30586237 -32.86405279 37.30586237 -32 35 C-30.33333333 34.33333333 -28.66666667 33.66666667 -27 33 C-13.6279372 24.97676232 -6.51212024 13.8829816 0 0 Z " fill="#956C6C" transform="translate(544,330)"/>
<path d="M0 0 C0.99 0.66 1.98 1.32 3 2 C2.525625 2.598125 2.05125 3.19625 1.5625 3.8125 C-0.16465744 6.00382924 -0.16465744 6.00382924 -1 9 C-2.55859375 10.09765625 -2.55859375 10.09765625 -4.4375 11.0625 C-6.74149765 12.26019398 -8.13152817 13.13152817 -10 15 C-11.6476038 15.71247732 -13.31763529 16.37400383 -15 17 C-15.928125 17.37125 -16.85625 17.7425 -17.8125 18.125 C-18.534375 18.41375 -19.25625 18.7025 -20 19 C-19.22322317 14.40170799 -18.49018831 11.95261381 -14.62890625 9.19921875 C-13.28631141 8.34148642 -11.93023905 7.50454073 -10.5625 6.6875 C-9.88123047 6.25888672 -9.19996094 5.83027344 -8.49804688 5.38867188 C-7.23306404 4.59449558 -5.9628519 3.80854063 -4.68579102 3.03393555 C-3.09961331 2.0610952 -1.54823479 1.03215652 0 0 Z " fill="#E58F97" transform="translate(585,679)"/>
<path d="M0 0 C0.33 0.99 0.66 1.98 1 3 C0.5373877 3.35191406 0.07477539 3.70382813 -0.40185547 4.06640625 C-2.56053022 5.70968064 -4.71772883 7.35488349 -6.875 9 C-7.6498877 9.5892627 -8.42477539 10.17852539 -9.22314453 10.78564453 C-14.30639618 14.66360002 -19.27045715 18.63345964 -24.1171875 22.8046875 C-24.73851563 23.19914062 -25.35984375 23.59359375 -26 24 C-26.99 23.67 -27.98 23.34 -29 23 C-23.79255945 16.46833059 -23.79255945 16.46833059 -20.25 14.375 C-17.39657085 12.63123774 -17.17243347 11.04832702 -16 8 C-13.39608549 6.23605791 -12.19219704 6 -9 6 C-8.38125 5.38125 -7.7625 4.7625 -7.125 4.125 C-4.84747282 1.84747282 -3.02380411 1.0079347 0 0 Z " fill="#EDADB5" transform="translate(139,123)"/>
<path d="M0 0 C5.65511856 -0.31417325 9.9672207 0.37705183 15.3125 2.24609375 C23.85032075 4.64115102 32.71610063 4.11716729 41.5 4.0625 C42.90885258 4.05747533 44.31770689 4.05291413 45.7265625 4.04882812 C49.15108638 4.0371003 52.57552047 4.02068691 56 4 C56 4.33 56 4.66 56 5 C36.72331984 8.69689757 18.5905188 7.36153965 0 1 C0 0.67 0 0.34 0 0 Z " fill="#B66568" transform="translate(187,640)"/>
<path d="M0 0 C0.66 0.33 1.32 0.66 2 1 C-3.11048885 5.22976968 -7.71390298 8.69509776 -14 11 C-14.98097656 11.4125 -15.96195313 11.825 -16.97265625 12.25 C-23.74332533 15.03745674 -29.67920789 16.83653734 -37 17 C-38.28970703 17.05800781 -38.28970703 17.05800781 -39.60546875 17.1171875 C-46.88462266 17.30625643 -53.84601066 16.2738423 -61 15 C-61 14.67 -61 14.34 -61 14 C-60.19481934 14.02094727 -59.38963867 14.04189453 -58.56005859 14.06347656 C-34.85678612 15.05824798 -34.85678612 15.05824798 -13 7 C-11.865625 6.525625 -10.73125 6.05125 -9.5625 5.5625 C-5.98703324 3.99431283 -3.17122831 2.24306393 0 0 Z " fill="#AC6262" transform="translate(266,603)"/>
<path d="M0 0 C0.495 0.99 0.495 0.99 1 2 C-2.69380435 7.65613791 -6.76151472 11.76021875 -12 16 C-12.73734375 16.60070312 -13.4746875 17.20140625 -14.234375 17.8203125 C-26.71529363 27.76200975 -26.71529363 27.76200975 -32 28.3125 C-32.66 28.209375 -33.32 28.10625 -34 28 C-34 28.66 -34 29.32 -34 30 C-37.11910856 31.79275866 -39.67682428 32.34290718 -43.25 32.625 C-44.14203125 32.69976563 -45.0340625 32.77453125 -45.953125 32.8515625 C-46.62859375 32.90054688 -47.3040625 32.94953125 -48 33 C-45 31 -45 31 -41.3125 29.9375 C-36.41516471 28.37520957 -32.08772966 26.00793472 -27.625 23.5 C-26.92286377 23.10804443 -26.22072754 22.71608887 -25.49731445 22.31225586 C-22.22790558 20.44193437 -19.65397098 18.6839337 -17 16 C-16.236875 15.5875 -15.47375 15.175 -14.6875 14.75 C-11.64759178 12.77052488 -9.77056845 10.56481475 -7.48828125 7.78125 C-5.46546042 5.3602361 -3.26197291 3.19734511 -1 1 C-0.67 0.67 -0.34 0.34 0 0 Z " fill="#965656" transform="translate(559,607)"/>
<path d="M0 0 C2.54733493 1.27366746 2.58361544 2.083582 3.515625 4.71875 C3.79414307 5.48203613 4.07266113 6.24532227 4.35961914 7.03173828 C4.65344482 7.84626465 4.94727051 8.66079102 5.25 9.5 C7.79889645 16.30104921 10.48436726 22.2517536 15 28 C16.12695495 29.47767777 17.25199574 30.95681757 18.375 32.4375 C19.12910156 33.39462891 19.12910156 33.39462891 19.8984375 34.37109375 C21 36 21 36 21 38 C21.66 38 22.32 38 23 38 C24.625 39.375 24.625 39.375 26 41 C26 41.66 26 42.32 26 43 C26.66 43 27.32 43 28 43 C28 43.99 28 44.98 28 46 C27.34 46 26.68 46 26 46 C26 45.34 26 44.68 26 44 C25.34 44 24.68 44 24 44 C24 43.34 24 42.68 24 42 C23.34 42 22.68 42 22 42 C20.375 40.6875 20.375 40.6875 19 39 C19 38.01 19 37.02 19 36 C17.515 35.505 17.515 35.505 16 35 C13.37927735 31.52226378 11.23262317 27.73582421 9 24 C8.52949219 23.24976563 8.05898437 22.49953125 7.57421875 21.7265625 C3.841322 15.50892024 0 7.35569408 0 0 Z " fill="#975959" transform="translate(124,572)"/>
<path d="M0 0 C1.2065625 0.0309375 1.2065625 0.0309375 2.4375 0.0625 C0.17187327 2.32812673 -1.40410705 3.00712749 -4.60546875 3.16015625 C-5.31316406 3.14855469 -6.02085937 3.13695312 -6.75 3.125 C-8.6371875 3.0940625 -8.6371875 3.0940625 -10.5625 3.0625 C-10.5625 3.7225 -10.5625 4.3825 -10.5625 5.0625 C-14.65176849 5.1375148 -18.74076207 5.19150317 -22.83056641 5.22729492 C-24.21735627 5.24223947 -25.60410007 5.26260278 -26.99072266 5.28881836 C-35.28827058 5.4415891 -42.75316805 5.15946458 -50.5625 2.0625 C-50.5625 1.7325 -50.5625 1.4025 -50.5625 1.0625 C-49.50240723 1.16860596 -49.50240723 1.16860596 -48.42089844 1.27685547 C-40.5348599 2.00742465 -32.72932424 2.21409627 -24.8125 2.1875 C-23.64589844 2.19136719 -22.47929687 2.19523438 -21.27734375 2.19921875 C-13.96387873 2.19093623 -6.67760833 0.1628685 0 0 Z " fill="#A35D5D" transform="translate(502.5625,614.9375)"/>
<path d="M0 0 C0.33 0 0.66 0 1 0 C1.01458252 0.75917725 1.02916504 1.51835449 1.04418945 2.30053711 C0.99350784 32.01369029 0.99350784 32.01369029 10.64453125 59.68359375 C12 62 12 62 11.6875 64.3125 C11.460625 64.869375 11.23375 65.42625 11 66 C10.731875 65.071875 10.46375 64.14375 10.1875 63.1875 C9.31112517 60.07465096 9.31112517 60.07465096 7.5546875 58.71484375 C5.28523508 56.21160352 4.80997131 53.61762617 3.9375 50.375 C3.61652344 49.20710937 3.29554688 48.03921875 2.96484375 46.8359375 C2.64644531 45.57007813 2.32804687 44.30421875 2 43 C1.7220459 42.08408081 1.7220459 42.08408081 1.43847656 41.1496582 C-0.76787143 33.10039307 -0.21580935 24.7088612 -0.125 16.4375 C-0.11495088 14.8405004 -0.10582844 13.24349468 -0.09765625 11.64648438 C-0.07579391 7.76416994 -0.0413706 3.88215356 0 0 Z " fill="#9F6060" transform="translate(372,525)"/>
<path d="M0 0 C3.89199822 -0.02514961 7.7839635 -0.04306705 11.67602539 -0.05493164 C13.63364327 -0.06229736 15.59123871 -0.07501826 17.54882812 -0.08789062 C39.98439474 -0.14497858 39.98439474 -0.14497858 49 3 C49 3.66 49 4.32 49 5 C50.07314453 4.92265625 50.07314453 4.92265625 51.16796875 4.84375 C54.47174781 5.02602747 56.40676078 5.95027242 59.3125 7.5 C60.19550781 7.9640625 61.07851563 8.428125 61.98828125 8.90625 C62.65214844 9.2671875 63.31601562 9.628125 64 10 C61.28258908 11.05856387 60.11771139 11.03883965 57.30078125 10.109375 C56.31464844 9.66078125 55.32851563 9.2121875 54.3125 8.75 C40.49841269 2.72933241 28.34017588 1.91271422 13.3125 1.4375 C12.02666016 1.39431641 10.74082031 1.35113281 9.41601562 1.30664062 C6.27742506 1.20163202 3.13876996 1.09947595 0 1 C0 0.67 0 0.34 0 0 Z " fill="#7D5858" transform="translate(463,434)"/>
<path d="M0 0 C0 0.66 0 1.32 0 2 C-1.98 2.33 -3.96 2.66 -6 3 C-6.33 3.99 -6.66 4.98 -7 6 C-8.65 6.33 -10.3 6.66 -12 7 C-12 8.32 -12 9.64 -12 11 C-17.3927895 11.82965992 -22.55690852 12 -28 12 C-27.34 11.01 -26.68 10.02 -26 9 C-25.34 9.33 -24.68 9.66 -24 10 C-24 9.34 -24 8.68 -24 8 C-22.98679687 7.67386719 -21.97359375 7.34773437 -20.9296875 7.01171875 C-19.57804496 6.57055764 -18.22648693 6.12913758 -16.875 5.6875 C-15.87726562 5.36749023 -15.87726562 5.36749023 -14.859375 5.04101562 C-11.64164778 3.98421306 -8.73237439 2.86492182 -5.6953125 1.33203125 C-3 0 -3 0 0 0 Z " fill="#E4888E" transform="translate(543,704)"/>
<path d="M0 0 C2.475 0.99 2.475 0.99 5 2 C5 2.66 5 3.32 5 4 C5.804375 4.28875 6.60875 4.5775 7.4375 4.875 C10 6 10 6 11 8 C12.48867276 8.92866164 14.01554706 9.79705336 15.5625 10.625 C16.38878906 11.07101562 17.21507812 11.51703125 18.06640625 11.9765625 C18.70449219 12.31429687 19.34257812 12.65203125 20 13 C20 13.66 20 14.32 20 15 C20.721875 15.12375 21.44375 15.2475 22.1875 15.375 C27.45398398 16.54532977 30.89714022 18.48326304 35 22 C25.17025903 20.82804877 16.72345282 14.66579955 8.6875 9.1875 C8.11829834 8.80271484 7.54909668 8.41792969 6.96264648 8.02148438 C5.60200572 7.06871966 4.29478878 6.04049311 3 5 C3 4.34 3 3.68 3 3 C2.34 3 1.68 3 1 3 C0.67 2.01 0.34 1.02 0 0 Z " fill="#9D5959" transform="translate(152,618)"/>
<path d="M0 0 C1.8871875 0.0309375 1.8871875 0.0309375 3.8125 0.0625 C3.4825 1.7125 3.1525 3.3625 2.8125 5.0625 C1.8225 4.7325 0.8325 4.4025 -0.1875 4.0625 C-2.73815942 4.81597275 -2.73815942 4.81597275 -5.375 6 C-6.72658203 6.57041016 -6.72658203 6.57041016 -8.10546875 7.15234375 C-8.79253906 7.45269531 -9.47960937 7.75304687 -10.1875 8.0625 C-11.5075 6.7425 -12.8275 5.4225 -14.1875 4.0625 C-4.65041209 -0.07623626 -4.65041209 -0.07623626 0 0 Z " fill="#F2C3C6" transform="translate(214.1875,87.9375)"/>
<path d="M0 0 C1.125 3.75 1.125 3.75 0 6 C-0.31432523 9.11269291 -0.51089874 12.22617578 -0.71875 15.34765625 C-1 18 -1 18 -2 19 C-2.15582303 20.34015221 -2.25044142 21.68758903 -2.31640625 23.03515625 C-2.37924805 24.24848633 -2.37924805 24.24848633 -2.44335938 25.48632812 C-2.48267578 26.33646484 -2.52199219 27.18660156 -2.5625 28.0625 C-2.60568359 28.91650391 -2.64886719 29.77050781 -2.69335938 30.65039062 C-2.79976702 32.76672037 -2.90041731 34.88333813 -3 37 C-3.66 37 -4.32 37 -5 37 C-5.0270491 33.93744039 -5.04686298 30.8751214 -5.0625 27.8125 C-5.07087891 26.94818359 -5.07925781 26.08386719 -5.08789062 25.19335938 C-5.10396812 20.99713231 -5.07559038 17.09063114 -4 13 C-3.34 13 -2.68 13 -2 13 C-2.02320313 12.39671875 -2.04640625 11.7934375 -2.0703125 11.171875 C-2.08835937 10.37265625 -2.10640625 9.5734375 -2.125 8.75 C-2.14820313 7.96109375 -2.17140625 7.1721875 -2.1953125 6.359375 C-1.9828378 3.79268059 -1.28654105 2.2083933 0 0 Z " fill="#6F4A4A" transform="translate(403,511)"/>
<path d="M0 0 C6.45840708 5.44247788 6.45840708 5.44247788 9.125 8.1875 C11.25386759 10.24540534 13.43156155 11.53232089 16 13 C16.886875 13.639375 17.77375 14.27875 18.6875 14.9375 C22.26064791 17.16229021 25.78137548 18.5592327 29.73046875 19.97265625 C32.04825569 21.0218438 33.34370066 22.09552551 35 24 C27.22472451 23.05179567 21.93909989 20.20387112 15.90234375 15.46484375 C13.87216544 13.85235392 13.87216544 13.85235392 11 12.125 C6.89718919 9.21884235 3.26548852 5.82907537 0 2 C0 1.34 0 0.68 0 0 Z " fill="#845050" transform="translate(417,592)"/>
<path d="M0 0 C0.33 0 0.66 0 1 0 C1.03738281 1.06734375 1.07476562 2.1346875 1.11328125 3.234375 C1.51340717 12.76602334 2.43956602 22.04368553 4.0715332 31.44824219 C4.20519287 32.24649414 4.33885254 33.04474609 4.4765625 33.8671875 C4.60111816 34.56956543 4.72567383 35.27194336 4.85400391 35.99560547 C5.01541949 38.21169565 4.64657416 39.8860403 4 42 C-2.66297265 30.24181297 -0.20815669 12.99217989 0 0 Z " fill="#A16262" transform="translate(119,530)"/>
<path d="M0 0 C0.33 0.99 0.66 1.98 1 3 C1.66 3 2.32 3 3 3 C3.37125 4.2375 3.7425 5.475 4.125 6.75 C6.38005121 13.52589197 9.36227232 20.51355901 13.6875 26.23046875 C15 28 15 28 15 30 C11.18786683 28.72928894 10.98822713 27.62724065 9.1875 24.125 C7.60291163 21.06702244 6.02337096 18.03974654 4.27734375 15.0703125 C1.17965179 9.78299903 -0.82290946 6.17182098 0 0 Z " fill="#845151" transform="translate(402,562)"/>
<path d="M0 0 C3.98274369 1.04809044 7.1673745 2.64311884 10.625 4.8125 C15.3988627 7.77984019 20.29614213 9.89799309 25.53125 11.921875 C28 13 28 13 30 15 C24.9754516 14.37193145 20.65952791 12.87529255 16 11 C14.515 10.4121875 14.515 10.4121875 13 9.8125 C12.34 9.544375 11.68 9.27625 11 9 C11 8.34 11 7.68 11 7 C10.29875 6.938125 9.5975 6.87625 8.875 6.8125 C4.94005052 5.70044906 2.98599244 3.77766739 0 1 C0 0.67 0 0.34 0 0 Z " fill="#A85F5F" transform="translate(413,626)"/>
<path d="M0 0 C0 0.99 0 1.98 0 3 C-0.66 3 -1.32 3 -2 3 C-2.21140625 3.5775 -2.4228125 4.155 -2.640625 4.75 C-4.48745613 7.80682395 -6.74858145 9.08864888 -9.75 11 C-10.77609375 11.66 -11.8021875 12.32 -12.859375 13 C-14.41398438 13.99 -14.41398438 13.99 -16 15 C-17.04929687 15.73734375 -18.09859375 16.4746875 -19.1796875 17.234375 C-22.41875369 19.26215605 -24.24992756 19.35714976 -28 19 C-25.38058783 17.25372522 -23.96175123 16.61277612 -21 16 C-21 15.34 -21 14.68 -21 14 C-20.05125 13.649375 -19.1025 13.29875 -18.125 12.9375 C-11.25030526 9.99720286 -5.14483079 5.38137474 0 0 Z " fill="#834F4F" transform="translate(533,596)"/>
<path d="M0 0 C0.99 0.495 0.99 0.495 2 1 C2.4140625 4.16015625 2.4140625 4.16015625 2.625 8.0625 C2.69976562 9.35285156 2.77453125 10.64320313 2.8515625 11.97265625 C2.90054688 12.97167969 2.94953125 13.97070312 3 15 C3.66 15 4.32 15 5 15 C5.69937202 16.4317616 6.38412718 17.87067032 7.0625 19.3125 C7.44535156 20.11300781 7.82820312 20.91351562 8.22265625 21.73828125 C9 24 9 24 8 27 C5 21.25 5 21.25 5 19 C4.34 19 3.68 19 3 19 C0.6969113 12.43345544 -0.33693273 6.96327638 0 0 Z " fill="#A66464" transform="translate(148,552)"/>
<path d="M0 0 C0.33 0 0.66 0 1 0 C1 4.29 1 8.58 1 13 C1.66 13 2.32 13 3 13 C3.08114106 14.77007714 3.13925505 16.54122098 3.1875 18.3125 C3.23970703 19.79169922 3.23970703 19.79169922 3.29296875 21.30078125 C3 24 3 24 0 27 C0 18.09 0 9.18 0 0 Z " fill="#E49393" transform="translate(679,490)"/>
<path d="M0 0 C0.66 0.33 1.32 0.66 2 1 C0.56368119 4.83018349 -1.19869264 8.42130491 -3.046875 12.0625 C-4.1617219 14.32874617 -5.11339251 16.63571336 -6 19 C-6.66 18.34 -7.32 17.68 -8 17 C-8 14 -8 14 -6 12 C-6.20625 11.38125 -6.4125 10.7625 -6.625 10.125 C-6.74875 9.42375 -6.8725 8.7225 -7 8 C-5.14944202 5.76656796 -3.59616917 4.29808458 -1 3 C-0.67 2.01 -0.34 1.02 0 0 Z " fill="#E899A1" transform="translate(660,592)"/>
<path d="M0 0 C3.66887827 1.70645501 6.34074668 3.96085335 9 7 C10.28317892 10.84953676 10.06643637 13.94738135 10 18 C9.67 18 9.34 18 9 18 C8.90203125 17.32453125 8.8040625 16.6490625 8.703125 15.953125 C8.55359375 15.06109375 8.4040625 14.1690625 8.25 13.25 C8.11078125 12.36828125 7.9715625 11.4865625 7.828125 10.578125 C6.78827201 7.34084681 5.72474565 6.03447675 3 4 C-0.25358683 3.09179635 -0.25358683 3.09179635 -3.75 2.75 C-5.50570313 2.52570312 -5.50570313 2.52570312 -7.296875 2.296875 C-8.63492187 2.14992188 -8.63492187 2.14992188 -10 2 C-6.27420911 -0.48386059 -4.41288598 -0.3804212 0 0 Z " fill="#AF6565" transform="translate(282,598)"/>
<path d="M0 0 C0.66 0 1.32 0 2 0 C3.19140625 1.3984375 3.19140625 1.3984375 4.5625 3.375 C7.78731767 7.8450443 11.40658423 11.85369081 15.14453125 15.8984375 C17 18 17 18 18 20 C10.43349478 16.6707377 4.28799383 8.91926277 0 2 C0 1.34 0 0.68 0 0 Z " fill="#A15D5C" transform="translate(391,603)"/>
<path d="M0 0 C-2.97531225 1.9835415 -5.30592739 2.57565326 -8.7421875 3.35546875 C-11.99219636 4.28323945 -14.91627456 5.76313975 -17.921875 7.29296875 C-20.37061435 8.12609248 -21.59663678 7.8498379 -24 7 C-16.19099503 2.18167778 -9.25558436 -0.50485006 0 0 Z " fill="#947676" transform="translate(458,218)"/>
<path d="M0 0 C1.52270508 1.2355957 1.52270508 1.2355957 3 3 C3.06518555 4.99291992 3.06518555 4.99291992 2.63671875 7.23046875 C2.49169922 8.03291016 2.34667969 8.83535156 2.19726562 9.66210938 C2.02904297 10.49548828 1.86082031 11.32886719 1.6875 12.1875 C1.53087891 13.03248047 1.37425781 13.87746094 1.21289062 14.74804688 C0.82381148 16.83492595 0.4138738 18.91789642 0 21 C-0.33 21 -0.66 21 -1 21 C-1.02888146 17.68751813 -1.04675799 14.37506833 -1.0625 11.0625 C-1.07087891 10.11697266 -1.07925781 9.17144531 -1.08789062 8.19726562 C-1.09111328 7.29814453 -1.09433594 6.39902344 -1.09765625 5.47265625 C-1.10289307 4.64000244 -1.10812988 3.80734863 -1.11352539 2.94946289 C-1 1 -1 1 0 0 Z " fill="#F3CCCC" transform="translate(41,266)"/>
<path d="M0 0 C0.99 0 1.98 0 3 0 C2.9375 2.8125 2.9375 2.8125 2 6 C-0.27444434 7.4926041 -2.37961699 8.14242011 -5 9 C-5.33 8.01 -5.66 7.02 -6 6 C-4 4 -2 2 0 0 Z " fill="#F2C1C4" transform="translate(179,98)"/>
<path d="M0 0 C-2.56428003 4.17882671 -5.01930733 7.12505529 -9 10 C-8.71872579 8.51882199 -8.42466268 7.04006751 -8.125 5.5625 C-7.96257813 4.73878906 -7.80015625 3.91507813 -7.6328125 3.06640625 C-7.42398438 2.38449219 -7.21515625 1.70257812 -7 1 C-4.53721199 -0.231394 -2.7204945 -0.07159196 0 0 Z " fill="#E99CA8" transform="translate(624,650)"/>
<path d="M0 0 C0.66 0.33 1.32 0.66 2 1 C-2.93464157 6.76267666 -7.58256043 11.90376198 -14 16 C-12.34136495 11.67495164 -9.128959 8.90581175 -5.875 5.75 C-5.31167969 5.19570313 -4.74835938 4.64140625 -4.16796875 4.0703125 C-2.78313972 2.70895515 -1.39216796 1.35385141 0 0 Z " fill="#A66C6B" transform="translate(176,474)"/>
<path d="M0 0 C0.33 0.66 0.66 1.32 1 2 C1.99 2.33 2.98 2.66 4 3 C1.42853943 5.57146057 -0.6050417 5.80117997 -4.125 6.625 C-5.22070312 6.88539063 -6.31640625 7.14578125 -7.4453125 7.4140625 C-8.28835938 7.60742188 -9.13140625 7.80078125 -10 8 C-8.85331791 4.55995373 -8.12056696 3.73364831 -5 2 C-2.25 2.3125 -2.25 2.3125 0 3 C0 2.01 0 1.02 0 0 Z " fill="#E48E96" transform="translate(520,713)"/>
<path d="M0 0 C3.34321955 1.11440652 4.06019619 1.97472343 6.25 4.625 C9.64121152 8.63082341 13.23933198 12.3422074 17 16 C12.95136013 16 11.98442858 14.70680732 9 12 C7.43142289 10.26152663 5.91872241 8.49055774 4.4296875 6.68359375 C3.0178472 4.95923569 3.0178472 4.95923569 1.3203125 3.41015625 C0 2 0 2 0 0 Z " fill="#AE6565" transform="translate(161,587)"/>
<path d="M0 0 C0.33 0.66 0.66 1.32 1 2 C-2.19169281 5.46526648 -4.62934023 7.34623684 -9 9 C-9.99 10.485 -9.99 10.485 -11 12 C-11.99 11.67 -12.98 11.34 -14 11 C-9.52692892 6.95834187 -5.11723176 3.19826985 0 0 Z " fill="#F0BFC1" transform="translate(141,118)"/>
<path d="M0 0 C0 0.66 0 1.32 0 2 C-1.98 2.33 -3.96 2.66 -6 3 C-6.33 3.99 -6.66 4.98 -7 6 C-10.07617188 6.29296875 -10.07617188 6.29296875 -13.15234375 6.5859375 C-13.76207031 6.72257813 -14.37179687 6.85921875 -15 7 C-15.33 7.66 -15.66 8.32 -16 9 C-16.33 8.01 -16.66 7.02 -17 6 C-14.73192796 4.9932996 -12.46092246 3.99448234 -10.1875 3 C-9.22360352 2.57074219 -9.22360352 2.57074219 -8.24023438 2.1328125 C-5.32243531 0.86288959 -3.21734286 0 0 0 Z " fill="#DE787B" transform="translate(543,704)"/>
<path d="M0 0 C-2.64738916 1.4606285 -3.89448334 2 -7 2 C-7 2.66 -7 3.32 -7 4 C-15.42857143 7.42857143 -15.42857143 7.42857143 -20 7 C-18.68 6.67 -17.36 6.34 -16 6 C-16 5.34 -16 4.68 -16 4 C-13.71144298 3.13656269 -11.4198072 2.2840189 -9.125 1.4375 C-8.47402344 1.19064453 -7.82304687 0.94378906 -7.15234375 0.68945312 C-2.2265625 -1.11328125 -2.2265625 -1.11328125 0 0 Z " fill="#935353" transform="translate(263,637)"/>
<path d="M0 0 C0.33 0 0.66 0 1 0 C1.71969331 6.62117849 -0.47155738 11.41864532 -4 17 C-4.66 17.33 -5.32 17.66 -6 18 C-5.34 15.69 -4.68 13.38 -4 11 C-3.34 11 -2.68 11 -2 11 C-1.7834375 9.1128125 -1.7834375 9.1128125 -1.5625 7.1875 C-1.26251314 4.57332877 -0.84186703 2.52560108 0 0 Z " fill="#A96464" transform="translate(579,566)"/>
<path d="M0 0 C0 2.62113708 -0.31292445 4.50935112 -1 7 C-1.66 7 -2.32 7 -3 7 C-3.12375 7.78375 -3.2475 8.5675 -3.375 9.375 C-4 12 -4 12 -6 14 C-5.1038961 5.03896104 -5.1038961 5.03896104 -3 2 C-2.01 1.34 -1.02 0.68 0 0 Z " fill="#905F5F" transform="translate(133,486)"/>
<path d="M0 0 C2.45098556 0.39532025 4.63904279 1.21301426 7 2 C7 2.66 7 3.32 7 4 C3.52674819 5.1577506 0.63932552 5.06866652 -3 5 C-2 2 -2 2 0 0 Z " fill="#E3868D" transform="translate(498,718)"/>
<path d="M0 0 C1 3 1 3 0.3125 5.125 C-1 7 -1 7 -3.125 7.75 C-4.053125 7.87375 -4.053125 7.87375 -5 8 C-5.33 6.02 -5.66 4.04 -6 2 C-4.02 1.34 -2.04 0.68 0 0 Z " fill="#ECA9B1" transform="translate(73,193)"/>
<path d="M0 0 C2.95268306 2.95268306 3.92072925 4.16408941 4.09765625 8.26171875 C4.08605469 9.06222656 4.07445312 9.86273437 4.0625 10.6875 C4.05347656 11.49574219 4.04445313 12.30398438 4.03515625 13.13671875 C4.02355469 13.75160156 4.01195312 14.36648438 4 15 C3.34 15 2.68 15 2 15 C1.34 10.05 0.68 5.1 0 0 Z " fill="#8E5B5B" transform="translate(550,509)"/>
<path d="M0 0 C5.6143991 1.56448671 10.86810338 3.16395187 16 6 C12.2868788 7.23770707 11.05441953 6.57925405 7.4375 5.25 C5.98150391 4.73179687 5.98150391 4.73179687 4.49609375 4.203125 C2 3 2 3 0 0 Z " fill="#9C5858" transform="translate(427,634)"/>
<path d="M0 0 C-0.5 1.9375 -0.5 1.9375 -2 4 C-4.69658452 4.68790422 -7.2017019 4.81946464 -10 5 C-9.34 4.01 -8.68 3.02 -8 2 C-7.34 2.33 -6.68 2.66 -6 3 C-6 2.34 -6 1.68 -6 1 C-3 0 -3 0 0 0 Z " fill="#DF797D" transform="translate(525,711)"/>
<path d="M0 0 C2.1385485 2.1385485 2.42655063 3.13275314 3 6 C1.35 6.33 -0.3 6.66 -2 7 C-2.33 7.99 -2.66 8.98 -3 10 C-3.33 9.34 -3.66 8.68 -4 8 C-3.22265625 6.0546875 -3.22265625 6.0546875 -2.0625 3.875 C-1.49208984 2.78832031 -1.49208984 2.78832031 -0.91015625 1.6796875 C-0.60980469 1.12539063 -0.30945313 0.57109375 0 0 Z " fill="#E2888B" transform="translate(657,590)"/>
<path d="M0 0 C3.87148471 3.33053753 4.25777009 7.12858303 5 12 C5.125 15.0625 5.125 15.0625 5 17 C3.14670366 14.22005549 2.31436395 12.21743449 1.375 9.0625 C1.11460937 8.20785156 0.85421875 7.35320312 0.5859375 6.47265625 C0 4 0 4 0 0 Z " fill="#8B6C6C" transform="translate(572,256)"/>
<path d="M0 0 C4.92127034 -0.16682272 8.50343896 -0.24828052 13 2 C13 2.33 13 2.66 13 3 C8.07872966 3.16682272 4.49656104 3.24828052 0 1 C0 0.67 0 0.34 0 0 Z " fill="#8C5050" transform="translate(187,640)"/>
<path d="M0 0 C3.29078593 2.79716804 5.06305458 6.19528578 7 10 C6.67 10.66 6.34 11.32 6 12 C4.98829382 10.75945552 3.99102203 9.5071298 3 8.25 C2.443125 7.55390625 1.88625 6.8578125 1.3125 6.140625 C0 4 0 4 0 0 Z " fill="#97595A" transform="translate(384,591)"/>
<path d="M0 0 C-0.33 1.65 -0.66 3.3 -1 5 C-1.99 4.67 -2.98 4.34 -4 4 C-4.99 4.33 -5.98 4.66 -7 5 C-7.66 4.34 -8.32 3.68 -9 3 C-3.375 0 -3.375 0 0 0 Z " fill="#F0BABF" transform="translate(218,88)"/>
<path d="M0 0 C0.71484375 1.734375 0.71484375 1.734375 1 4 C-0.43359375 6.140625 -0.43359375 6.140625 -2.4375 8.25 C-3.09621094 8.95640625 -3.75492188 9.6628125 -4.43359375 10.390625 C-4.95050781 10.92171875 -5.46742188 11.4528125 -6 12 C-6 8.47967572 -5.29648649 7.5614657 -3 5 C-2.34 5 -1.68 5 -1 5 C-0.67 3.35 -0.34 1.7 0 0 Z " fill="#985A5A" transform="translate(567,595)"/>
<path d="M0 0 C0.33 0.66 0.66 1.32 1 2 C0.328125 3.83984375 0.328125 3.83984375 -0.75 5.9375 C-1.26820313 6.97197266 -1.26820313 6.97197266 -1.796875 8.02734375 C-3.00394966 10.00647591 -4.29707383 11.43898435 -6 13 C-5.34215037 9.70319035 -4.10579427 7.15882078 -2.4375 4.25 C-1.98246094 3.45078125 -1.52742187 2.6515625 -1.05859375 1.828125 C-0.53458984 0.92320312 -0.53458984 0.92320312 0 0 Z " fill="#9E6565" transform="translate(157,498)"/>
<path d="M0 0 C2.475 0.99 2.475 0.99 5 2 C5 2.66 5 3.32 5 4 C7.475 4.99 7.475 4.99 10 6 C8.1875 6.625 8.1875 6.625 6 7 C5.01 6.34 4.02 5.68 3 5 C3 4.34 3 3.68 3 3 C2.34 3 1.68 3 1 3 C0.67 2.01 0.34 1.02 0 0 Z " fill="#935555" transform="translate(152,618)"/>
<path d="M0 0 C0.33 0.99 0.66 1.98 1 3 C-0.40445835 5.2636564 -2.1967913 7.0208685 -4 9 C-5.32 8.67 -6.64 8.34 -8 8 C-7.195625 7.38125 -6.39125 6.7625 -5.5625 6.125 C-2.96125481 4.25835959 -2.96125481 4.25835959 -2 2 C-1.34 2 -0.68 2 0 2 C0 1.34 0 0.68 0 0 Z " fill="#955756" transform="translate(290,616)"/>
<path d="M0 0 C1 2 1 2 0.0625 5.125 C-0.288125 6.07375 -0.63875 7.0225 -1 8 C-1.66 8 -2.32 8 -3 8 C-3.33 9.65 -3.66 11.3 -4 13 C-5 11 -5 11 -4.2578125 8.65234375 C-3.88398437 7.75644531 -3.51015625 6.86054687 -3.125 5.9375 C-2.75632812 5.03902344 -2.38765625 4.14054688 -2.0078125 3.21484375 C-1 1 -1 1 0 0 Z " fill="#875353" transform="translate(550,568)"/>
<path d="M0 0 C1 3 1 3 0 6 C-0.66 6 -1.32 6 -2 6 C-1.125 1.125 -1.125 1.125 0 0 Z M-5 7 C-4.34 7.33 -3.68 7.66 -3 8 C-4.32 8.99 -5.64 9.98 -7 11 C-6.34 9.68 -5.68 8.36 -5 7 Z " fill="#E58D94" transform="translate(635,628)"/>
<path d="M0 0 C-5.17578125 3.22265625 -5.17578125 3.22265625 -7 4 C-7.99 3.67 -8.98 3.34 -10 3 C-3.94594595 -1.97297297 -3.94594595 -1.97297297 0 0 Z " fill="#AC605F" transform="translate(272,634)"/>
<path d="M0 0 C4.12751449 0.60698743 7.3321148 2.03810791 11 4 C8.39417629 4.93065133 7.35801776 5.14917407 4.75 4.0625 C3.88375 3.5365625 3.88375 3.5365625 3 3 C3 2.34 3 1.68 3 1 C2.01 0.67 1.02 0.34 0 0 Z " fill="#985958" transform="translate(441,611)"/>
<path d="M0 0 C1.08892712 2.83121051 0.96109941 4.16532751 0.25 7.1875 C-0.36875 8.5796875 -0.36875 8.5796875 -1 10 C-1.99 10.33 -2.98 10.66 -4 11 C-3.52269162 9.5410574 -3.04308958 8.08286504 -2.5625 6.625 C-2.29566406 5.81289063 -2.02882813 5.00078125 -1.75390625 4.1640625 C-1 2 -1 2 0 0 Z " fill="#925857" transform="translate(572,584)"/>
<path d="M0 0 C0.33 0.99 0.66 1.98 1 3 C-1.17424117 5.50037734 -2.73045798 6.43628586 -6 7 C-4.60667426 3.63279613 -3.0210714 2.0140476 0 0 Z " fill="#F2BFC1" transform="translate(121,133)"/>
<path d="M0 0 C0.66 0.33 1.32 0.66 2 1 C2.625 3.0625 2.625 3.0625 3 5 C1.02 5.66 -0.96 6.32 -3 7 C-2.01 4.69 -1.02 2.38 0 0 Z " fill="#E2878B" transform="translate(652,600)"/>
<path d="M0 0 C4.31392226 0.4793247 6.16569547 1.7457985 9 5 C4.98525763 5 3.18024863 3.33218233 0 1 C0 0.67 0 0.34 0 0 Z " fill="#8B5252" transform="translate(176,604)"/>
</svg>
